<svg width="24" height="25" viewBox="0 0 24 25" fill="none" xmlns="http://www.w3.org/2000/svg">
<path d="M8.69217 15.8575C10.1369 17.4878 11.5816 19.1181 13.0264 20.7484C13.4076 21.1723 13.8849 21.5034 14.4329 21.724C15.5869 22.2075 17.0072 21.5373 17.7506 20.7516C18.9938 19.4371 19.1762 17.829 18.2024 16.7301C15.715 13.9173 13.2247 11.1071 10.7315 8.29941C10.1989 7.6984 9.29877 7.66273 8.56872 8.20269C8.20355 8.46917 7.92767 8.84157 7.79581 9.24605C7.66395 9.65053 7.68573 10.0575 7.85683 10.3864C7.92534 10.5063 8.00805 10.6163 8.10366 10.7146C9.97194 12.8258 11.8418 14.9359 13.7134 17.045C14.0088 17.3784 13.9943 17.7369 13.674 18.0296C13.3537 18.3223 12.9757 18.3006 12.674 17.9602C10.7868 15.8305 8.89962 13.7009 7.01254 11.5714C6.15768 10.6067 6.25 9.15564 7.23222 7.95012C8.4584 6.44398 10.6259 6.12218 11.6859 7.30002C12.7578 8.49136 13.8141 9.69653 14.8772 10.8962C16.3566 12.5656 17.8417 14.2298 19.3131 15.9063C20.4692 17.2234 20.3027 19.4151 18.9665 21.0697C17.703 22.6346 15.2347 23.8748 13.1484 22.5948C12.716 22.3355 12.3277 22.02 11.9916 21.6549C9.09277 18.4115 6.21246 15.1517 3.32779 11.8957C1.64566 9.99749 1.9474 6.9307 4.04333 4.61763C6.27322 2.15387 9.95273 1.53424 12.0163 3.27747C12.1726 3.40762 12.3189 3.54832 12.4545 3.69887C14.8645 6.41414 17.2673 9.13583 19.6851 11.8437C20.0019 12.2012 19.7995 12.7037 19.4322 12.8943C19.3124 12.9583 19.1828 12.9886 19.0605 12.9811C18.9381 12.9737 18.829 12.9288 18.7474 12.8525C18.6899 12.7985 18.64 12.7379 18.588 12.6791C16.2105 9.99618 13.833 7.31326 11.4555 4.63033C10.7735 3.87881 9.75156 3.4885 8.61161 3.54424C7.47166 3.59997 6.30586 4.09724 5.36754 4.92799C4.42922 5.75873 3.79421 6.85582 3.60051 7.98084C3.4068 9.10586 3.67005 10.1679 4.33305 10.9362L8.69326 15.8565L8.69217 15.8575Z" fill="#5B5B5B"/>
</svg>
