<svg width="31" height="24" viewBox="0 0 31 24" fill="none" xmlns="http://www.w3.org/2000/svg">
<path d="M30.9932 20.6029H28.4676C28.3857 18.8118 27.6362 17.4221 26.1933 16.4583C25.6977 16.1265 25.1121 15.9122 24.5442 15.7102C24.0309 15.5286 23.5517 15.3402 23.4138 14.7545C23.2678 14.1457 23.4971 13.687 23.9694 13.2638C26.0554 11.3976 26.5045 8.78063 25.1558 6.60867C24.3995 5.38958 23.2773 4.66332 21.9231 4.31111C21.4657 4.19234 21.2582 3.97528 21.0794 3.56847C20.7982 2.9323 20.431 2.33982 20.1006 1.72414C21.7538 1.21494 24.895 2.24836 26.6178 4.31794C28.4799 6.56089 29.4383 10.2523 26.8281 13.874C28.4785 14.7573 29.6949 16.0514 30.4062 17.7866C30.6655 18.4255 30.8061 19.1121 31 19.7783L30.9932 20.6029Z" fill="white"/>
<path d="M16.5278 14.1286C20.6861 16.4999 23.1215 19.8036 23.269 23.2752H20.8554C19.8233 18.0876 15.5736 15.5921 11.7839 15.6453C7.66798 15.704 3.82233 18.5122 2.91041 23.2806H0.48999C0.554153 19.9073 3.01416 16.5545 7.24068 14.1205C5.15473 12.414 4.10083 10.2093 4.25099 7.53767C4.36567 5.41758 5.28169 3.61968 6.8994 2.21357C8.39096 0.934038 10.318 0.278042 12.2804 0.381757C14.2429 0.485472 16.09 1.34093 17.4384 2.77055C20.181 5.67151 20.4595 10.885 16.5278 14.1286ZM11.8863 2.92072C9.0659 2.92072 6.79701 5.14319 6.79155 7.91037C6.79155 10.8386 9.02631 13.1239 11.9 13.1198C14.6781 13.1198 16.9879 10.7908 16.9865 8.00046C16.9856 7.33179 16.8529 6.66986 16.5959 6.05254C16.339 5.43522 15.9628 4.87461 15.489 4.40281C15.0152 3.931 14.4529 3.55725 13.8345 3.30294C13.2161 3.04863 12.5536 2.91874 11.8849 2.92072H11.8863Z" fill="white"/>
</svg>
