<?xml version="1.0" encoding="UTF-8" standalone="no"?>
<svg
   xmlns:dc="http://purl.org/dc/elements/1.1/"
   xmlns:cc="http://creativecommons.org/ns#"
   xmlns:rdf="http://www.w3.org/1999/02/22-rdf-syntax-ns#"
   xmlns:svg="http://www.w3.org/2000/svg"
   xmlns="http://www.w3.org/2000/svg"
   viewBox="0 0 20.879999 20.879999"
   id="svg7"
   height="50.879999"
   width="50.879999"
   version="1.1">
  <metadata
     id="metadata13">
    <rdf:RDF>
      <cc:Work
         rdf:about="">
        <dc:format>image/svg+xml</dc:format>
        <dc:type
           rdf:resource="http://purl.org/dc/dcmitype/StillImage" />
      </cc:Work>
    </rdf:RDF>
  </metadata>
  <defs
     id="defs11" />
  <g
     id="Layer1000">
    <path
       id="path2"
       style="fill:#3a3a3a;fill-rule:evenodd"
       d="m 2.0401,4.2741 v 12.3318 q 0,2.234 2.234,2.234 h 12.3318 q 2.234,0 2.234,-2.234 V 4.2741 q 0,-2.234 -2.234,-2.234 H 4.2741 q -2.234,0 -2.234,2.234 z" />
    <path
       id="path4"
       style="fill:#c4c6c8;fill-rule:evenodd"
       d="m 10.4404,5.677 c 0.7369,0 1.4041,0.299 1.8866,0.7816 0.4825,0.4825 0.7814,1.1503 0.7814,1.8872 0,0.7368 -0.2989,1.4046 -0.7814,1.8872 -0.4825,0.4825 -1.1497,0.7815 -1.8866,0.7815 -0.7368,0 -1.4044,-0.299 -1.8869,-0.7815 C 8.0709,9.7504 7.7721,9.0826 7.7721,8.3458 7.7721,7.6089 8.0709,6.9411 8.5535,6.4586 9.036,5.976 9.7036,5.677 10.4404,5.677 Z m 1.6363,1.0319 C 11.658,6.2901 11.0792,6.0308 10.4404,6.0308 9.8015,6.0308 9.2225,6.2901 8.8038,6.7089 8.385,7.1276 8.1259,7.7066 8.1259,8.3458 c 0,0.6391 0.2591,1.2181 0.6779,1.6369 0.4187,0.4187 0.9977,0.678 1.6366,0.678 0.6388,0 1.2176,-0.2593 1.6363,-0.678 0.4188,-0.4188 0.6779,-0.9978 0.6779,-1.6369 0,-0.6392 -0.2591,-1.2182 -0.6779,-1.6369 z m -1.6363,4.7055 c 1.2613,0 2.4139,0.4705 3.2911,1.2456 0.8876,0.7844 1.4933,1.8806 1.6449,3.116 0.0118,0.0969 -0.0572,0.1851 -0.154,0.197 l -0.0215,0.0014 h -0.001 -9.5203 c -0.0977,0 -0.1769,-0.0793 -0.1769,-0.1769 0,-0.0098 8e-4,-0.0193 0.0024,-0.0287 0.1532,-1.2326 0.7583,-2.3264 1.6439,-3.1088 0.8774,-0.7751 2.0302,-1.2456 3.2914,-1.2456 z m 3.0576,1.5096 c -0.8138,-0.7192 -1.8845,-1.1558 -3.0576,-1.1558 -1.1734,0 -2.2439,0.4366 -3.0579,1.1558 -0.7762,0.6857 -1.3201,1.6295 -1.4986,2.6966 h 9.1127 C 14.8181,14.5535 14.2742,13.6099 13.498,12.924 Z" />
  </g>
</svg>
