<svg width="31" height="24" viewBox="0 0 31 24" fill="none" xmlns="http://www.w3.org/2000/svg">
<path d="M30.9932 20.6029H28.4676C28.3857 18.8118 27.6362 17.4221 26.1933 16.4583C25.6977 16.1265 25.1121 15.9122 24.5442 15.7102C24.0309 15.5286 23.5517 15.3402 23.4138 14.7545C23.2678 14.1457 23.4971 13.687 23.9694 13.2638C26.0554 11.3976 26.5045 8.78063 25.1558 6.60867C24.3995 5.38958 23.2773 4.66332 21.9231 4.31111C21.4657 4.19234 21.2582 3.97528 21.0794 3.56847C20.7982 2.9323 20.431 2.33982 20.1006 1.72414C21.7538 1.21494 24.895 2.24836 26.6178 4.31794C28.4799 6.56089 29.4383 10.2523 26.8281 13.874C28.4785 14.7573 29.6949 16.0514 30.4062 17.7866C30.6655 18.4255 30.8061 19.1121 31 19.7783L30.9932 20.6029Z" fill="#5B5B5B"/>
<path d="M16.5281 14.1286C20.6863 16.4999 23.1218 19.8036 23.2692 23.2752H20.8556C19.8236 18.0876 15.5738 15.5921 11.7842 15.6453C7.66822 15.704 3.82258 18.5122 2.91065 23.2806H0.490234C0.554397 19.9073 3.01441 16.5545 7.24093 14.1205C5.15497 12.414 4.10107 10.2093 4.25124 7.53767C4.36591 5.41758 5.28193 3.61968 6.89964 2.21357C8.3912 0.934038 10.3182 0.278042 12.2807 0.381757C14.2431 0.485472 16.0903 1.34093 17.4386 2.77055C20.1812 5.67151 20.4597 10.885 16.5281 14.1286ZM11.8866 2.92072C9.06614 2.92072 6.79725 5.14319 6.79179 7.91037C6.79179 10.8386 9.02656 13.1239 11.9002 13.1198C14.6783 13.1198 16.9881 10.7908 16.9868 8.00046C16.9859 7.33179 16.8532 6.66986 16.5962 6.05254C16.3392 5.43522 15.9631 4.87461 15.4892 4.40281C15.0154 3.931 14.4532 3.55725 13.8348 3.30294C13.2163 3.04863 12.5539 2.91874 11.8852 2.92072H11.8866Z" fill="#5B5B5B"/>
</svg>
