<svg width="22" height="22" viewBox="0 0 22 22" fill="none" xmlns="http://www.w3.org/2000/svg">
<path d="M12.0087 14.952C12.3003 14.6447 12.5727 14.3368 12.8662 14.0499C14.7496 12.2229 17.5717 12.1297 19.576 13.8232C19.8767 14.0752 20.1671 14.335 20.4744 14.5761C22.6326 16.2697 22.4588 19.4727 20.22 21.0814C19.2068 21.8091 18.0552 21.9787 16.8579 21.9986C14.8049 22.0328 12.9053 21.4573 11.1115 20.4951C8.53953 19.1239 6.41498 17.1994 4.47865 15.0518C2.95425 13.3595 1.65234 11.5174 0.810459 9.38129C0.0635898 7.4863 -0.211823 5.53237 0.173638 3.5183C0.534444 1.62571 2.04562 0.21604 3.9621 0.022391C5.24657 -0.108112 6.34943 0.333913 7.22259 1.29434C7.62007 1.73155 7.99892 2.18681 8.36514 2.65109C9.87271 4.56653 9.71155 7.3137 7.99411 9.11006C7.75838 9.35603 7.52326 9.60441 7.26889 9.83174C7.11134 9.97126 7.08007 10.0982 7.19793 10.2653C7.57077 10.7964 7.90571 11.3605 8.32605 11.8512C9.20401 12.8784 10.1632 13.8316 11.3123 14.5719C11.5204 14.706 11.7483 14.8113 12.0087 14.952ZM16.7136 20.3219C16.9439 20.3219 17.1748 20.3327 17.4045 20.3219C18.2711 20.2744 19.057 20.0302 19.6746 19.3765C20.6313 18.3625 20.5634 16.844 19.5128 15.9305C19.1953 15.6544 18.8718 15.385 18.5507 15.1156C17.1075 13.9098 15.292 13.985 13.9438 15.3062C13.672 15.5733 13.4128 15.8535 13.1326 16.1109C12.6112 16.592 12.0093 16.7057 11.352 16.4393C11.0735 16.3274 10.8046 16.1928 10.548 16.0369C9.31226 15.2816 8.29358 14.2736 7.32121 13.2176C6.64049 12.4779 6.01328 11.6967 5.61159 10.7627C5.28566 10.0031 5.41194 9.36866 5.99043 8.7823C6.27908 8.49003 6.57795 8.20677 6.85517 7.90427C7.99772 6.65758 8.04943 4.87625 6.98325 3.56701C6.67957 3.19415 6.37109 2.82369 6.05298 2.46345C5.21109 1.50543 3.84965 1.38094 2.83519 2.16275C2.01315 2.79602 1.74495 3.67947 1.68 4.66816C1.55973 6.53249 1.98368 8.28074 2.86405 9.9039C4.86352 13.5917 7.73914 16.4651 11.2696 18.6843C12.9197 19.7253 14.7292 20.3447 16.7136 20.3219Z" fill="#5B5B5B"/>
</svg>
