<svg width="29" height="28" viewBox="0 0 29 28" fill="none" xmlns="http://www.w3.org/2000/svg">
<path d="M23.0781 15.5111C23.0781 16.5098 23.069 17.5024 23.0823 18.4957C23.0883 18.952 22.9384 19.309 22.52 19.504C22.1125 19.6942 21.7447 19.5805 21.4082 19.2981C20.0622 18.17 18.7089 17.0516 17.3671 15.9192C17.1992 15.7778 17.0336 15.7387 16.8254 15.732C15.8947 15.7037 14.952 15.7429 14.037 15.6044C10.9362 15.1337 8.36399 12.5783 7.80114 9.49556C7.05589 5.41176 9.52821 1.54166 13.538 0.552613C14.0924 0.41651 14.6605 0.343807 15.2313 0.335901C17.2479 0.310618 19.2646 0.317239 21.2818 0.327473C24.9671 0.346736 28.2165 3.18686 28.7427 6.83784C29.3061 10.7435 27.0505 14.2957 23.2864 15.4334C23.2195 15.4533 23.1563 15.4816 23.0781 15.5111ZM21.156 16.5616C21.156 15.9548 21.156 15.4178 21.156 14.8802C21.156 14.1434 21.4178 13.8328 22.1528 13.6986C24.6739 13.2362 26.6574 11.0017 26.8133 8.44873C27.021 5.04154 24.3976 2.24838 20.9832 2.24838C19.158 2.24838 17.332 2.24938 15.5052 2.25139C15.1544 2.24714 14.8038 2.27231 14.4572 2.32663C11.171 2.89791 9.0996 5.89454 9.7088 9.18253C10.1507 11.5724 12.2774 13.5457 14.698 13.7576C15.5751 13.8334 16.4612 13.8117 17.3431 13.8123C17.6652 13.8027 17.9792 13.9141 18.2231 14.1248C18.742 14.5672 19.2688 15.0012 19.7931 15.4371C20.2307 15.7964 20.6684 16.157 21.156 16.5616Z" fill="#5B5B5B"/>
<path d="M7.71747 24.2705L9.51437 22.7764C9.89963 22.4555 10.2873 22.1377 10.669 21.8132C10.8887 21.6208 11.1722 21.5172 11.4642 21.5224C12.3262 21.5224 13.1912 21.5393 14.0491 21.4737C15.3993 21.3707 16.5364 20.7754 17.5146 19.8483C17.7019 19.6731 17.9329 19.5514 18.1834 19.4962C18.5867 19.4179 18.966 19.6623 19.1466 20.0211C19.3272 20.3937 19.2531 20.835 18.9365 21.1558C18.1894 21.9166 17.2915 22.5127 16.3004 22.9058C15.3001 23.3 14.2299 23.4864 13.1551 23.4536C12.6561 23.4427 12.1125 23.3494 11.6688 23.5138C11.2252 23.6781 10.9001 24.1079 10.5251 24.4222C9.50173 25.2764 8.47837 26.1366 7.44839 26.9811C7.2754 27.131 7.06895 27.2371 6.84641 27.2906C6.2625 27.4007 5.75504 26.9511 5.75022 26.3473C5.743 25.3945 5.743 24.4414 5.75022 23.4879C5.75022 23.2898 5.70567 23.2019 5.49859 23.1321C2.49474 22.1148 0.675565 20.0506 0.109708 16.9354C-0.492267 13.6191 1.43887 10.0813 4.53302 8.73106C5.04831 8.50652 5.60454 8.70337 5.83148 9.19036C6.06385 9.6894 5.85496 10.2402 5.318 10.4918C3.7643 11.2208 2.70302 12.3911 2.18051 14.0248C1.11019 17.3688 3.2773 20.888 6.73324 21.4622C7.37013 21.5682 7.66209 21.9065 7.6645 22.5458C7.6645 23.0978 7.6645 23.6492 7.67052 24.2012C7.67172 24.2163 7.68978 24.2313 7.71747 24.2705Z" fill="#5B5B5B"/>
<path d="M14.4004 7.09375V8.97071H12.5029V7.09375H14.4004Z" fill="#5B5B5B"/>
<path d="M17.3115 8.96951V7.09375H19.2083V8.96951H17.3115Z" fill="#5B5B5B"/>
<path d="M22.1357 8.97734V7.08594H24.0223V8.97734H22.1357Z" fill="#5B5B5B"/>
</svg>
