<?xml version="1.0" standalone="no"?>
<!DOCTYPE svg PUBLIC "-//W3C//DTD SVG 20010904//EN"
 "http://www.w3.org/TR/2001/REC-SVG-20010904/DTD/svg10.dtd">
<svg version="1.0" xmlns="http://www.w3.org/2000/svg"
 width="25.000000pt" height="25.000000pt" viewBox="0 0 377.000000 344.000000"
 preserveAspectRatio="xMidYMid meet">

<g transform="translate(0.000000,344.000000) scale(0.100000,-0.100000)"
fill="#5B5B5B" stroke="#5B5B5B" stroke-width="25px">
<path d="M1165 3424 c-69 -15 -250 -135 -301 -201 -16 -20 -38 -48 -50 -62
-11 -14 -34 -53 -49 -86 -26 -54 -29 -72 -32 -190 -3 -71 0 -162 4 -201 8 -60
6 -74 -9 -100 -10 -16 -18 -48 -18 -74 0 -59 25 -164 50 -209 11 -20 29 -67
39 -106 26 -97 47 -151 76 -193 14 -20 25 -40 25 -45 0 -10 59 -86 109 -140
46 -49 130 -108 201 -138 45 -20 72 -24 145 -24 98 0 153 19 252 86 138 93
253 258 314 448 16 53 37 106 45 118 36 56 58 229 34 273 -7 12 -4 53 7 130
32 210 -11 374 -128 489 -87 86 -208 142 -438 201 -106 28 -211 37 -276 24z"/>
<path d="M900 1749 c-64 -54 -232 -133 -400 -189 -141 -46 -237 -112 -286
-196 -90 -154 -167 -476 -196 -820 -13 -160 -4 -236 35 -272 38 -35 263 -112
467 -158 58 -14 209 -41 335 -61 222 -35 239 -37 495 -37 239 0 282 3 440 27
195 30 331 57 343 66 14 13 -94 120 -175 172 -186 119 -340 182 -633 259 -74
19 -77 6 58 281 313 639 408 829 416 829 5 0 19 -8 32 -18 13 -11 53 -36 89
-58 159 -96 390 -270 519 -393 l64 -61 29 32 c15 17 28 36 28 40 0 22 -64 160
-93 202 -51 71 -110 107 -300 182 -51 20 -132 52 -182 72 -91 36 -199 101
-208 124 -2 7 -7 -16 -11 -52 -8 -72 -37 -174 -66 -231 -28 -54 -116 -127
-174 -144 -163 -49 -322 -14 -433 93 -51 49 -119 183 -137 266 -8 37 -15 69
-17 71 -2 1 -20 -10 -39 -26z"/>
<path d="M3620 1746 c-59 -29 -126 -67 -213 -121 -40 -24 -95 -66 -162 -121
-27 -22 -57 -45 -66 -50 -65 -36 -444 -411 -581 -576 -46 -54 -88 -98 -95 -98
-6 0 -32 26 -56 57 -76 98 -327 331 -437 405 -14 10 -45 31 -69 48 -24 17 -45
29 -47 28 -4 -4 -156 -311 -229 -461 -26 -54 -43 -102 -39 -107 5 -4 27 -13
49 -20 59 -18 361 -166 414 -203 82 -57 165 -128 205 -176 49 -58 176 -225
196 -257 8 -13 19 -24 23 -24 4 0 20 26 34 57 80 181 276 564 341 668 17 28
41 68 53 90 12 22 30 51 39 65 10 14 45 66 78 117 62 95 198 279 238 323 13
14 54 62 93 106 67 77 245 234 297 262 13 7 24 15 24 17 0 11 -29 2 -90 -29z"/>
</g>
</svg>
