<?xml version="1.0" standalone="no"?>
<!DOCTYPE svg PUBLIC "-//W3C//DTD SVG 20010904//EN"
 "http://www.w3.org/TR/2001/REC-SVG-20010904/DTD/svg10.dtd">
<svg version="1.0" xmlns="http://www.w3.org/2000/svg"
 width="20.000000pt" height="20.000000pt" viewBox="0 0 48.000000 48.000000"
 preserveAspectRatio="xMidYMid meet">

<g transform="translate(0.000000,48.000000) scale(0.100000,-0.100000)"
fill="#5B5B5B" stroke="#5B5B5B" stroke-width="25px">
<path d="M10 415 c0 -52 1 -55 25 -55 25 0 25 -1 25 -85 0 -78 -2 -85 -20 -85
-19 0 -20 -7 -20 -90 l0 -90 220 0 220 0 0 90 c0 83 -1 90 -20 90 -18 0 -20 7
-20 85 0 84 0 85 25 85 24 0 25 3 25 55 l0 55 -230 0 -230 0 0 -55z m450 0 l0
-44 -220 0 -220 0 0 44 0 45 220 0 220 0 0 -45z m-50 -140 l0 -85 -170 0 -170
0 0 85 0 85 170 0 170 0 0 -85z m40 -175 l0 -80 -210 0 -210 0 0 80 0 80 210
0 210 0 0 -80z"/>
<path d="M301 301 c-8 -6 -12 -18 -8 -31 3 -13 0 -29 -9 -37 -8 -8 -14 -20
-14 -26 0 -6 7 -1 16 11 8 12 24 22 34 22 10 0 26 -10 34 -22 9 -12 16 -17 16
-11 0 6 -7 16 -15 23 -9 8 -13 21 -9 32 3 10 0 25 -6 33 -14 17 -20 18 -39 6z
m35 -12 c10 -17 -13 -36 -27 -22 -12 12 -4 33 11 33 5 0 12 -5 16 -11z"/>
</g>
</svg>
