<svg width="22" height="22" viewBox="0 0 22 22" fill="none" xmlns="http://www.w3.org/2000/svg">
<path d="M15.9928 7.58922C15.9928 6.73051 15.9997 5.9182 15.9928 5.10588C15.9662 2.56431 13.8126 0.454069 11.2784 0.480718C10.6541 0.478877 10.0545 0.724745 9.61093 1.16448C9.16737 1.60422 8.91597 2.20198 8.9118 2.82686C8.89306 3.7211 8.93054 4.61928 8.84475 5.50661C8.70965 6.89831 7.79261 7.74616 6.64679 8.38673C6.57777 8.42523 6.42295 8.38673 6.35097 8.32652C5.62621 7.78662 4.8127 7.56454 3.91537 7.58922C3.24681 7.606 2.57727 7.58922 1.90773 7.58922C1.13268 7.58922 0.645557 8.06792 0.644571 8.83385C0.644571 12.7418 0.644571 16.6497 0.644571 20.5576C0.644571 21.3058 1.12972 21.7924 1.87223 21.7973C2.63282 21.8033 3.39374 21.8033 4.15499 21.7973C5.0247 21.7914 5.80666 21.5279 6.4624 20.9465C6.53226 20.8709 6.62497 20.8203 6.72631 20.8025C6.82765 20.7847 6.93204 20.8006 7.02347 20.8478C8.88616 21.6118 10.8248 21.8812 12.8304 21.8052C14.1409 21.7559 15.4544 21.7964 16.7669 21.7954C18.7676 21.7954 20.1343 20.7037 20.5327 18.7475C21.0119 16.3951 21.4763 14.0394 21.926 11.6804C22.3096 9.66294 20.6589 7.63364 18.6118 7.5912C17.7608 7.57836 16.9079 7.58922 15.9928 7.58922ZM11.2705 2.86437C12.7378 2.98577 13.6173 3.92343 13.6321 5.35165C13.644 6.43046 13.6321 7.50927 13.6321 8.58907C13.6321 9.49811 14.0788 9.95115 14.9752 9.95214C16.0904 9.95214 17.2057 9.94424 18.3199 9.95214C19.1995 9.96102 19.7182 10.574 19.5525 11.4327C19.1186 13.6742 18.665 15.9118 18.2174 18.1503C18.0201 19.1275 17.6484 19.4334 16.6554 19.4334C15.2522 19.4334 13.8471 19.4058 12.4449 19.4413C10.9614 19.487 9.48337 19.2412 8.09435 18.7178C7.82318 18.6191 7.71372 18.5017 7.71569 18.1947C7.73147 15.892 7.75119 13.5883 7.70583 11.2856C7.694 10.7062 7.8715 10.4091 8.34875 10.113C10.3209 8.88715 11.2981 7.08584 11.2685 4.74661C11.2636 4.13466 11.2705 3.51481 11.2705 2.86831V2.86437ZM3.01903 9.95806C3.43614 9.95806 3.81578 9.9403 4.19345 9.95806C4.87088 9.99557 5.35603 10.4703 5.35997 11.1553C5.37575 13.5103 5.37575 15.8654 5.35997 18.2204C5.35997 18.862 4.933 19.3407 4.31572 19.4048C3.89269 19.4502 3.46079 19.4137 3.01805 19.4137L3.01903 9.95806Z" fill="white"/>
</svg>
