<svg width="25" height="24" viewBox="0 0 25 24" fill="none" xmlns="http://www.w3.org/2000/svg">
<path d="M3.02495 6.14336C2.86496 5.88096 2.62024 5.51251 2.62024 5.21886L3.30407 6.01143H3.20937C3.00103 5.74659 2.97063 5.68893 2.74883 5.43484C2.6825 5.36337 2.64445 5.65681 2.57987 4.98236C2.55101 4.84469 2.55495 4.73804 2.54348 4.64032C2.64317 1.60052 5.92426 -0.229415 8.54644 1.36647C8.67703 1.44611 8.75328 1.43488 8.86643 1.33519C10.9752 -0.519175 13.8531 -0.434153 15.8189 1.5414C15.946 1.66942 16.0182 1.67235 16.1628 1.5673C17.4004 0.679935 18.7456 0.50598 20.1337 1.13925C21.5327 1.77741 22.2834 2.90909 22.4384 4.41311C22.5077 5.06467 22.4018 5.72268 22.1313 6.32171C22.0631 6.47417 22.093 6.5631 22.2001 6.68477C23.489 8.14285 24.3488 9.81447 24.6892 11.7177C24.8388 12.5645 24.9041 13.4279 24.9838 14.286C25.0955 15.4851 24.6239 16.4633 23.7492 17.2745C23.0808 17.8945 22.2923 18.3201 21.4276 18.6128C21.2372 18.6773 21.1475 18.7663 21.1066 18.9754C20.8265 20.4266 19.9254 21.4606 18.7207 22.2673C17.3201 23.2045 15.7491 23.6917 14.0779 23.8925C12.4899 24.0831 10.9114 24.0279 9.35188 23.6653C7.69365 23.2803 6.17496 22.6201 4.95732 21.4103C4.22714 20.6846 3.73221 19.833 3.59116 18.8083C3.56973 18.6558 3.49147 18.5913 3.35341 18.5395C2.45975 18.2043 1.65231 17.7308 1.00137 17.0316C0.317542 16.2952 -0.0453068 15.4411 0.00453507 14.4306C0.0733169 13.0033 0.220849 11.5897 0.705312 10.2283C1.15559 8.94767 1.84895 7.76208 2.74883 6.73412C2.84203 6.6276 2.90384 6.44091 2.92877 6.37497C2.92877 6.37497 3.00353 6.20394 3.02495 6.14336ZM8.62718 8.56308C8.59951 8.57494 8.57312 8.58951 8.54843 8.60657C8.46021 8.69257 8.36851 8.77612 8.28776 8.86897C7.03374 10.308 6.14207 11.9361 5.65013 13.7685C5.28279 15.1367 5.15669 16.5371 5.07645 17.9454C5.02661 18.8317 5.32915 19.571 5.92725 20.2136C6.50193 20.8312 7.20021 21.2822 7.97525 21.6126C10.3133 22.6094 12.7257 22.7403 15.1854 22.1476C16.3911 21.8569 17.5085 21.3697 18.4485 20.5503C19.2664 19.8369 19.7564 18.9739 19.6358 17.8628C19.5127 16.7316 19.4409 15.5896 19.2281 14.4741C18.8223 12.3432 17.8295 10.4712 16.3935 8.8245C16.2704 8.68377 16.1538 8.53816 16.0192 8.37642C14.99 9.49344 13.7828 10.0866 12.3309 10.1155C10.8701 10.1463 9.64396 9.57358 8.62718 8.56308ZM15.773 5.06739C15.6664 4.61882 15.6065 4.15315 15.4441 3.72462C14.7881 2.00023 12.8353 1.09136 11.1492 1.69825C9.07676 2.44391 8.1502 4.84115 9.19439 6.7566C9.92607 8.09839 11.4138 8.83818 12.8279 8.56455C14.5085 8.23716 15.7685 6.77663 15.773 5.06739ZM21.1186 17.0883L21.1958 17.1337C21.5916 16.9031 22.0077 16.7008 22.3786 16.4369C23.1561 15.8833 23.5887 15.1572 23.4492 14.1721C23.3924 13.7695 23.3794 13.3615 23.338 12.9564C23.1656 11.2603 22.5904 9.71088 21.5731 8.32316C21.4341 8.13308 21.2801 7.95326 21.1181 7.7495C20.3086 8.42871 19.392 8.76538 18.2771 8.73117C20.1621 11.2613 20.9745 14.0661 21.1191 17.0883H21.1186ZM3.58916 17.0072C3.6101 16.8044 3.62306 16.6451 3.64299 16.4868C3.71875 15.8814 3.79252 15.2759 3.87825 14.672C3.89524 14.5523 3.90068 14.5523 3.90068 14.5523C3.90068 14.5523 3.90068 14.479 3.90068 14.4545C3.90068 14.4301 3.95052 14.2346 3.95052 14.2102C3.95052 14.1613 4.02529 13.8437 4.05021 13.8193C4.05021 13.7949 4.11217 13.575 4.12646 13.5178C4.54015 11.8633 5.2793 10.3539 6.26667 8.95741C6.31004 8.89584 6.34443 8.82841 6.40374 8.72824C5.41787 8.70332 4.60943 8.34759 3.88622 7.75683C3.80543 7.83931 3.73034 7.92697 3.66144 8.01923C3.2951 8.58898 2.89636 9.14309 2.57837 9.73874C1.93641 10.9408 1.70115 12.2547 1.59997 13.5936C1.56608 14.0382 1.4963 14.4995 1.57655 14.929C1.7799 16.0138 2.64616 16.5264 3.58966 17.0072H3.58916ZM18.7232 2.28999C17.9401 2.28657 17.354 2.5001 16.9583 2.8827C16.925 2.92172 16.9014 2.96771 16.8892 3.0171C16.8771 3.0665 16.8766 3.11799 16.888 3.16757C17.3027 4.25479 17.3615 5.35617 17.041 6.47221C16.9956 6.63053 17.041 6.70627 17.1641 6.79373C17.6491 7.14166 18.2537 7.28981 18.8486 7.20654C19.4436 7.12327 19.9817 6.81518 20.348 6.3481C21.0059 5.52524 21.1181 4.60856 20.6665 3.66549C20.2468 2.79035 19.5147 2.32859 18.7232 2.28999ZM3.25274 5.24376L3.20937 5.15729C3.25921 5.09573 2.95966 4.8592 3.02495 4.82842C3.10121 4.79324 3.53883 4.9594 3.62804 4.95256C3.6111 5.02732 4.02429 5.66007 4.00037 5.73239C4.32733 6.22933 3.9236 5.81891 3.90167 5.84334C3.76311 6.00166 3.3569 5.58778 3.49696 5.67281C3.66692 5.77835 3.79003 5.69284 3.90167 5.55993C3.94753 5.50423 4.05022 5.37029 4.07513 5.41478C4.12497 5.42309 4.14689 5.54622 4.18378 5.61023C4.22814 5.68744 4.28845 5.76369 4.32682 5.84334C4.86412 6.99554 6.2258 7.52913 7.37466 7.04782C7.55359 6.97257 7.5805 6.8939 7.52069 6.7175C7.08408 5.43484 7.1414 4.1683 7.7081 2.93547C7.80778 2.72145 7.75794 2.64229 7.56605 2.54456C6.22929 1.87123 4.81488 2.29487 4.18378 3.48467C4.04123 3.75342 4.00037 4.24206 4.00037 4.53524C4.00037 4.68918 3.97545 5.15729 4.12301 5.46364L4.07513 5.41478C3.97545 5.39035 4.07015 5.81888 4.00037 5.73239C3.73421 5.40794 3.46806 4.87142 3.25274 5.24376ZM14.9656 23.6897C14.8659 23.7342 14.6885 23.5827 14.6167 23.6414C14.5449 23.7 14.7308 23.4332 14.677 23.5119C14.7692 23.5573 14.8574 23.6189 14.9551 23.6414C15.005 23.6521 15.0683 23.5925 15.1136 23.5681L14.9656 23.6897Z" fill="white"/>
</svg>
