<?xml version="1.0" standalone="no"?>
<!DOCTYPE svg PUBLIC "-//W3C//DTD SVG 20010904//EN"
 "http://www.w3.org/TR/2001/REC-SVG-20010904/DTD/svg10.dtd">
<svg version="1.0" xmlns="http://www.w3.org/2000/svg"
 width="512.000000pt" height="512.000000pt" viewBox="0 0 512.000000 512.000000"
 preserveAspectRatio="xMidYMid meet">

<g transform="translate(0.000000,512.000000) scale(0.100000,-0.100000)"
fill="#fff" stroke="none">
<path d="M2423 5095 c-124 -34 -222 -115 -280 -232 -33 -67 -38 -86 -41 -168
-5 -112 18 -193 77 -277 212 -295 671 -218 777 131 18 59 18 183 0 242 -70
231 -306 365 -533 304z m216 -268 c72 -48 101 -149 67 -230 -29 -71 -129 -126
-199 -111 -74 15 -141 77 -153 139 -32 172 143 296 285 202z"/>
<path d="M2415 4126 c-350 -68 -554 -353 -621 -864 -15 -118 -15 -124 3 -159
36 -68 116 -89 180 -48 33 22 49 64 63 165 53 412 192 622 435 662 52 9 85 9
137 0 239 -41 371 -240 433 -652 9 -61 24 -116 35 -135 51 -82 171 -71 210 18
18 40 18 48 4 147 -46 328 -138 546 -296 700 -67 66 -183 131 -273 155 -86 22
-227 27 -310 11z"/>
<path d="M2478 2992 c-30 -18 -58 -67 -58 -102 0 -34 29 -87 57 -105 14 -9 44
-17 68 -17 52 0 88 22 109 67 20 41 20 68 1 109 -29 61 -118 86 -177 48z"/>
<path d="M2482 2450 c-68 -41 -78 -133 -21 -189 56 -56 136 -50 185 14 81 107
-48 245 -164 175z"/>
<path d="M4295 2103 c-245 -34 -417 -267 -376 -507 20 -122 87 -225 187 -291
177 -118 406 -94 554 57 232 235 129 630 -190 726 -43 13 -134 21 -175 15z
m153 -280 c104 -59 116 -217 23 -296 -117 -98 -294 -28 -309 122 -9 92 54 179
144 199 51 12 89 5 142 -25z"/>
<path d="M677 2080 c-156 -27 -295 -152 -343 -309 -18 -60 -18 -183 1 -244 33
-111 121 -219 216 -268 224 -114 494 -20 603 211 42 90 49 217 17 313 -52 156
-186 271 -348 297 -65 11 -78 11 -146 0z m168 -273 c145 -82 113 -300 -51
-337 -159 -36 -282 146 -191 281 51 76 161 102 242 56z"/>
<path d="M2515 1922 c-75 -26 -108 -109 -70 -181 15 -30 69 -61 105 -61 33 0
87 29 105 56 32 50 14 141 -35 172 -24 15 -80 22 -105 14z"/>
<path d="M2956 1641 c-39 -26 -55 -57 -56 -104 -1 -98 103 -159 186 -108 78
48 79 164 1 211 -41 25 -94 25 -131 1z"/>
<path d="M2012 1634 c-49 -34 -66 -109 -37 -164 32 -62 129 -80 184 -34 89 75
39 214 -78 214 -26 0 -56 -7 -69 -16z"/>
<path d="M3428 1372 c-33 -20 -58 -68 -58 -110 0 -69 79 -130 151 -115 41 8
85 54 93 97 19 102 -99 183 -186 128z"/>
<path d="M1565 1370 c-37 -15 -67 -57 -72 -102 -12 -113 126 -178 207 -96 93
93 -13 249 -135 198z"/>
<path d="M4276 1128 c-147 -14 -275 -73 -382 -178 -154 -151 -245 -372 -288
-700 -12 -91 -12 -110 1 -142 37 -94 166 -104 217 -17 9 15 23 78 31 140 62
466 250 683 563 647 231 -26 383 -246 437 -634 23 -163 52 -204 144 -204 44 0
84 27 107 72 14 27 15 43 4 127 -57 470 -244 766 -545 865 -69 22 -194 33
-289 24z"/>
<path d="M683 1109 c-254 -25 -469 -202 -574 -472 -67 -174 -124 -486 -100
-545 42 -102 185 -107 225 -9 8 17 21 85 30 151 60 419 223 626 493 627 278 2
436 -198 504 -635 11 -71 24 -137 30 -148 17 -32 70 -58 118 -58 37 0 49 5 76
34 42 45 45 65 29 183 -33 237 -91 418 -181 558 -114 178 -288 293 -472 311
-31 3 -67 6 -81 8 -14 1 -57 -1 -97 -5z"/>
</g>
</svg>
