<svg width="29" height="26" viewBox="0 0 29 26" fill="none" xmlns="http://www.w3.org/2000/svg">
<path d="M14.5503 15.3172C14.5562 16.1521 14.3509 16.9324 13.8758 17.6301C13.7347 17.8365 13.765 17.963 13.9401 18.1141C14.1152 18.2651 14.2629 18.4449 14.4358 18.5974C14.653 18.7894 14.6124 18.9627 14.4358 19.1511C14.0479 19.5639 13.4857 19.5949 13.0365 19.1511C12.7572 18.8742 12.5607 18.8915 12.2237 19.054C10.0383 20.112 6.76079 19.1533 6.3271 16.0263C6.08476 14.2787 6.77557 12.5958 8.18675 11.7932C9.59792 10.9906 11.0734 10.964 12.5185 11.6946C13.8366 12.3599 14.5503 13.6983 14.5503 15.3172ZM12.6582 16.8131C13.035 16.0874 13.0801 15.3531 12.9212 14.5987C12.6936 13.5199 11.9349 12.8108 10.8155 12.608C9.86021 12.4354 8.82879 12.8468 8.33377 13.6659C7.65922 14.7814 7.66143 15.9285 8.37293 17.0259C9.03789 18.0522 10.5894 18.4025 11.6312 17.7825C11.5396 17.6833 11.4546 17.5855 11.3637 17.4948C11.0837 17.2072 10.7845 16.9389 10.5259 16.6361C10.2001 16.2557 10.274 15.8307 10.6737 15.5897C11.0106 15.3848 11.2832 15.5178 11.5322 15.7494C11.9009 16.091 12.2659 16.4405 12.6582 16.8116V16.8131Z" fill="white"/>
<circle cx="10.4317" cy="15.3203" r="9.18399" stroke="white" stroke-width="1.8"/>
<circle cx="21.5584" cy="8.03932" r="6.59166" fill="#5B5B5B" stroke="white" stroke-width="1.7"/>
<path d="M21.1328 4.73242C21.623 4.73242 21.7911 4.84988 21.962 5.30738C22.6124 7.05474 23.2618 8.80211 23.9102 10.5495C23.9808 10.7415 24.1607 10.9447 23.9102 11.1514C23.676 11.3452 23.2972 11.4216 23.0742 11.2507C22.9277 11.1333 22.8105 10.9806 22.7324 10.8055C22.5677 10.4344 22.4327 10.0479 22.2993 9.66209C22.2433 9.50704 22.1649 9.45419 22.0108 9.45595C21.4129 9.46417 20.8151 9.46652 20.2178 9.45595C20.0458 9.45595 19.969 9.52584 19.9135 9.6844C19.7684 10.0955 19.6222 10.5095 19.4535 10.9112C19.2849 11.3129 18.9352 11.4451 18.5481 11.2742C18.2489 11.1415 18.1895 10.9999 18.3083 10.6769C18.7782 9.40133 19.2492 8.12634 19.7214 6.85193C19.9068 6.35098 20.0906 5.84944 20.2761 5.34907C20.4643 4.8399 20.615 4.73184 21.1328 4.73242ZM20.3287 8.39297H21.8825C21.6253 7.68294 21.3827 7.01402 21.1238 6.29812C21.0885 6.34716 21.0568 6.399 21.0291 6.45317C20.8011 7.08039 20.5753 7.70819 20.3287 8.39297Z" fill="white"/>
</svg>
