<svg width="29" height="26" viewBox="0 0 29 26" fill="none" xmlns="http://www.w3.org/2000/svg">
<path d="M14.5502 15.3172C14.5561 16.1521 14.3507 16.9324 13.8757 17.6301C13.7345 17.8365 13.7648 17.963 13.9399 18.1141C14.115 18.2651 14.2628 18.4449 14.4357 18.5974C14.6529 18.7894 14.6123 18.9627 14.4357 19.1511C14.0478 19.5639 13.4856 19.5949 13.0363 19.1511C12.7571 18.8742 12.5605 18.8915 12.2236 19.054C10.0381 20.112 6.76067 19.1533 6.32697 16.0263C6.08464 14.2787 6.77545 12.5958 8.18662 11.7932C9.5978 10.9906 11.0733 10.964 12.5184 11.6946C13.8365 12.3599 14.5502 13.6983 14.5502 15.3172ZM12.6581 16.8131C13.0349 16.0874 13.0799 15.3531 12.9211 14.5987C12.6935 13.5199 11.9347 12.8108 10.8154 12.608C9.86009 12.4354 8.82867 12.8468 8.33365 13.6659C7.65909 14.7814 7.66131 15.9285 8.37281 17.0259C9.03776 18.0522 10.5893 18.4025 11.6311 17.7825C11.5395 17.6833 11.4545 17.5855 11.3636 17.4948C11.0836 17.2072 10.7844 16.9389 10.5258 16.6361C10.1999 16.2557 10.2738 15.8307 10.6735 15.5897C11.0105 15.3848 11.2831 15.5178 11.5321 15.7494C11.9007 16.091 12.2657 16.4405 12.6581 16.8116V16.8131Z" fill="#5B5B5B"/>
<circle cx="10.4317" cy="15.3203" r="9.18399" stroke="#5B5B5B" stroke-width="1.8"/>
<circle cx="21.5584" cy="8.03932" r="6.59166" fill="#F1F1F1" stroke="#5B5B5B" stroke-width="1.7"/>
<path d="M21.1328 4.73242C21.623 4.73242 21.7911 4.84988 21.962 5.30738C22.6124 7.05474 23.2618 8.80211 23.9102 10.5495C23.9808 10.7415 24.1607 10.9447 23.9102 11.1514C23.676 11.3452 23.2972 11.4216 23.0742 11.2507C22.9277 11.1333 22.8105 10.9806 22.7324 10.8055C22.5677 10.4344 22.4327 10.0479 22.2993 9.66209C22.2433 9.50704 22.1649 9.45419 22.0108 9.45595C21.4129 9.46417 20.8151 9.46652 20.2178 9.45595C20.0458 9.45595 19.969 9.52584 19.9135 9.6844C19.7684 10.0955 19.6222 10.5095 19.4535 10.9112C19.2849 11.3129 18.9352 11.4451 18.5481 11.2742C18.2489 11.1415 18.1895 10.9999 18.3083 10.6769C18.7782 9.40133 19.2492 8.12634 19.7214 6.85193C19.9068 6.35098 20.0906 5.84944 20.2761 5.34907C20.4643 4.8399 20.615 4.73184 21.1328 4.73242ZM20.3287 8.39297H21.8825C21.6253 7.68294 21.3827 7.01402 21.1238 6.29812C21.0885 6.34716 21.0568 6.399 21.0291 6.45317C20.8011 7.08039 20.5753 7.70819 20.3287 8.39297Z" fill="#5B5B5B"/>
</svg>
