<svg width="24" height="24" viewBox="0 0 24 24" fill="none" xmlns="http://www.w3.org/2000/svg">
<path d="M19.207 15.7553C19.6275 16.1709 20.0507 16.5852 20.47 17.0035C21.4091 17.9406 22.3549 18.8712 23.2815 19.8203C23.9449 20.5001 24.1553 21.3224 23.886 22.2342C23.6168 23.1461 22.9926 23.7228 22.0664 23.9324C21.1862 24.1323 20.4164 23.884 19.7771 23.2525C18.9661 22.4526 18.1639 21.6411 17.3581 20.8353C16.8584 20.3354 16.3547 19.8399 15.8614 19.3335C15.7613 19.2312 15.6941 19.2328 15.5749 19.3019C13.8803 20.2952 11.9365 20.7825 9.97359 20.7061C5.16327 20.5433 1.07551 17.0431 0.187301 12.3367C-0.775724 7.23356 2.04974 2.31439 6.94008 0.580678C10.8142 -0.793092 15.238 0.322321 18.0047 3.38021C19.8647 5.43666 20.7549 7.86546 20.7029 10.629C20.6701 12.3995 20.1868 14.056 19.2966 15.5906C19.2694 15.6374 19.2454 15.6841 19.207 15.7553ZM2.44303 10.3454C2.43983 14.7127 5.96705 18.2577 10.3213 18.2641C14.7063 18.2701 18.2515 14.7503 18.2571 10.3854C18.2623 6.00577 14.7363 2.45956 10.3709 2.45596C5.99426 2.45156 2.44703 5.98177 2.44383 10.3454H2.44303Z" fill="#878787"/>
</svg>
