<svg width="23" height="22" viewBox="0 0 23 22" fill="none" xmlns="http://www.w3.org/2000/svg">
<path d="M3.77336 0C4.29514 0.133318 4.80689 0.305341 5.30464 0.514711C10.3702 2.84498 15.4152 5.21755 20.4807 7.54076C22.012 8.24584 23.0169 9.28229 22.9998 11.1049C22.9827 12.9275 21.8855 13.7736 20.4397 14.4364C15.3696 16.7584 10.3132 19.1087 5.27046 21.4871C3.73577 22.2098 2.27626 22.2733 1.0321 20.9935C-0.212066 19.7138 -0.300917 18.0816 0.601443 16.6397C2.99406 12.8288 2.85391 9.23647 0.632194 5.31979C-0.858068 2.68634 0.710809 0.0458298 3.77336 0ZM3.48284 19.742C3.73483 19.6956 3.98202 19.6248 4.22113 19.5305C9.47464 17.1016 14.7282 14.6796 19.9441 12.1942C20.3747 11.9933 20.949 11.2918 20.8738 10.9568C20.7934 10.643 20.6527 10.349 20.4602 10.0922C20.2676 9.83546 20.027 9.62118 19.7527 9.46209C14.6416 7.02019 9.50199 4.63116 4.33393 2.29502C3.82122 2.06234 2.84025 2.09408 2.54288 2.43604C2.24551 2.778 2.30361 3.74041 2.50869 4.31504C3.13761 6.07773 4.01946 7.70997 4.58344 9.47266C4.85508 10.3775 4.85508 11.3458 4.58344 12.2506C3.99553 14.0662 3.11711 15.776 2.41642 17.5598C1.9208 18.8396 2.35489 19.7279 3.48284 19.7597V19.742Z" fill="#5B5B5B"/>
</svg>
