<svg width="23" height="23" viewBox="0 0 23 23" fill="none" xmlns="http://www.w3.org/2000/svg">
<path d="M11.4949 22.9999C9.21843 22.9989 6.9935 22.3223 5.10191 21.0558C3.21031 19.7893 1.73716 17.9899 0.869042 15.8855C0.000925118 13.7811 -0.223094 11.4663 0.225359 9.23451C0.673812 7.00268 1.77456 4.95415 3.38818 3.34841C5.0018 1.74266 7.05568 0.651946 9.28968 0.214414C11.5237 -0.223118 13.8373 0.0122194 15.9374 0.890618C18.0376 1.76902 19.8298 3.25096 21.087 5.14872C22.3442 7.04649 23.01 9.2747 22.9998 11.5511C22.9974 13.0586 22.6977 14.5509 22.118 15.9425C21.5382 17.3341 20.6898 18.5977 19.6212 19.661C18.5526 20.7244 17.2849 21.5667 15.8905 22.1396C14.4961 22.7125 13.0024 23.0049 11.4949 22.9999ZM21.4742 11.5087C21.4742 6.02006 16.9835 1.51936 11.4949 1.52186C6.03366 1.52186 1.53921 6.00384 1.52299 11.4601C1.50677 16.9487 5.99375 21.4681 11.4762 21.4781C16.9586 21.4881 21.473 16.9974 21.478 11.5087H21.4742Z" fill="#5B5B5B"/>
<path d="M11.5039 15.4224C10.0244 15.4112 8.71213 14.9234 7.53457 14.0503C7.04184 13.6873 6.92832 13.1845 7.21149 12.7629C7.49465 12.3413 8.03603 12.2827 8.57367 12.6382C10.6519 14.0266 12.3159 14.0253 14.4241 12.6319C14.958 12.2777 15.5043 12.3263 15.7962 12.7567C16.0881 13.187 15.9584 13.6898 15.4732 14.0478C14.2906 14.916 12.9845 15.4074 11.5039 15.4224Z" fill="#5B5B5B"/>
<path d="M8.50458 8.98132C8.51237 9.16881 8.48258 9.35596 8.41696 9.53177C8.35134 9.70758 8.25122 9.86848 8.12249 10.005C7.99376 10.1416 7.83902 10.251 7.66738 10.3268C7.49574 10.4026 7.31066 10.4434 7.12303 10.4466C6.93541 10.4499 6.74903 10.4156 6.57487 10.3457C6.4007 10.2758 6.24227 10.1718 6.1089 10.0398C5.97552 9.90784 5.8699 9.75049 5.79824 9.57706C5.72658 9.40363 5.69034 9.21762 5.69164 9.02997C5.68385 8.84248 5.71364 8.65532 5.77926 8.47952C5.84488 8.30371 5.945 8.14281 6.07373 8.00627C6.20246 7.86974 6.3572 7.76033 6.52884 7.68449C6.70049 7.60865 6.88557 7.56791 7.07319 7.56466C7.26081 7.56142 7.44719 7.59574 7.62136 7.6656C7.79552 7.73546 7.95395 7.83945 8.08732 7.97145C8.2207 8.10345 8.32632 8.26079 8.39798 8.43423C8.46964 8.60766 8.50588 8.79367 8.50458 8.98132Z" fill="#5B5B5B"/>
<path d="M17.3064 8.98744C17.3071 9.2652 17.2256 9.53696 17.0721 9.76848C16.9187 10 16.7001 10.1809 16.444 10.2885C16.1879 10.396 15.9057 10.4253 15.633 10.3728C15.3602 10.3202 15.1092 10.1881 14.9114 9.99305C14.7136 9.79804 14.5779 9.54885 14.5215 9.27688C14.4651 9.0049 14.4904 8.72232 14.5943 8.46473C14.6983 8.20713 14.8761 7.98605 15.1054 7.82934C15.3347 7.67263 15.6053 7.58729 15.8831 7.58409C16.0689 7.58178 16.2534 7.61636 16.4258 7.68582C16.5983 7.75528 16.7552 7.85824 16.8876 7.98875C17.0199 8.11926 17.1251 8.27473 17.197 8.44615C17.2689 8.61758 17.306 8.80155 17.3064 8.98744Z" fill="#5B5B5B"/>
</svg>
