<svg width="24" height="17" viewBox="0 0 24 17" fill="none" xmlns="http://www.w3.org/2000/svg">
<path d="M11.6616 16.9976C8.86586 16.9976 6.07049 16.9976 3.27546 16.9976C1.75618 16.9976 0.49618 16.0551 0.120467 14.6324C0.0442646 14.3355 0.00597341 14.0302 0.00650883 13.7237C-0.000789778 10.2403 -0.00194977 6.75685 0.00302656 3.27343C0.00551472 1.39984 1.40287 0.00348343 3.27745 0.00248816C8.88411 -0.000829387 14.4908 -0.000829387 20.0974 0.00248816C21.975 0.00248816 23.3674 1.39586 23.3699 3.27542C23.3755 6.75884 23.3755 10.2423 23.3699 13.7257C23.3674 15.6048 21.974 16.9941 20.0954 16.9971C17.2848 17.0008 14.4735 17.0009 11.6616 16.9976ZM11.7113 2.12788H3.32423C2.54842 2.12788 2.12991 2.54987 2.12991 3.32817C2.12991 6.77045 2.12991 10.2126 2.12991 13.6545C2.12991 14.4507 2.54643 14.8698 3.33716 14.8698H20.0362C20.8279 14.8698 21.2455 14.4507 21.246 13.656V3.35504C21.246 2.54241 20.8339 2.12837 20.0258 2.12837L11.7113 2.12788Z" fill="#5B5B5B"/>
<path d="M18.0585 6.89871C18.0585 7.4603 17.837 7.99924 17.442 8.39848C17.0471 8.79772 16.5106 9.02504 15.949 9.03106C14.7811 9.0455 13.8146 8.0786 13.8176 6.89971C13.8176 6.33734 14.041 5.798 14.4387 5.40035C14.8363 5.0027 15.3757 4.7793 15.938 4.7793C16.5004 4.7793 17.0397 5.0027 17.4374 5.40035C17.8351 5.798 18.0585 6.33734 18.0585 6.89971V6.89871Z" fill="#5B5B5B"/>
<path d="M7.4492 5.31445C8.12847 5.31445 8.80824 5.31445 9.4895 5.31445C10.1479 5.31445 10.6271 5.76232 10.6291 6.37242C10.6311 6.98252 10.1518 7.43735 9.49547 7.43984C8.1283 7.44548 6.76098 7.44548 5.39348 7.43984C4.7162 7.43984 4.25241 6.98501 4.26236 6.35351C4.26983 5.74142 4.7391 5.31744 5.4109 5.31744C6.0827 5.31744 6.76993 5.31445 7.4492 5.31445Z" fill="#5B5B5B"/>
<path d="M7.42674 11.6863C6.74747 11.6863 6.0682 11.6863 5.38644 11.6863C4.72509 11.6863 4.25732 11.2419 4.25781 10.6243C4.25781 10.0162 4.71514 9.56485 5.36206 9.56187C6.74614 9.5549 8.13006 9.5549 9.51381 9.56187C10.1528 9.56535 10.6255 10.0291 10.6255 10.6253C10.6255 11.2334 10.1448 11.6838 9.48843 11.6863C8.80269 11.6863 8.11496 11.6863 7.42674 11.6863Z" fill="#5B5B5B"/>
<path d="M15.6248 12.2349C15.2849 12.1851 14.6638 12.091 14.0443 11.991C13.939 11.9684 13.8368 11.9333 13.7397 11.8865C13.2317 11.67 13.1426 11.3944 13.4476 10.9311C13.7686 10.4454 14.2638 10.216 14.8057 10.0811C15.6875 9.86165 16.5643 9.88205 17.4227 10.199C17.8089 10.3414 18.1552 10.5529 18.3971 10.8992C18.7315 11.3769 18.6499 11.6671 18.1124 11.883C17.4073 12.1652 16.6608 12.1965 15.6248 12.2349Z" fill="#5B5B5B"/>
</svg>
