<svg width="20" height="16" viewBox="0 0 20 16" fill="none" xmlns="http://www.w3.org/2000/svg">
<path d="M13.0103 7.75558C13.0103 9.74546 13.0103 11.7354 13.0027 13.7237C12.9936 14.0244 12.9352 14.3216 12.8298 14.6034C12.5264 15.48 11.5042 15.7182 10.7398 15.3617C10.2864 15.1332 9.84593 14.8801 9.42027 14.6034C8.64677 14.1302 7.8854 13.6373 7.11037 13.1656C6.63675 12.8624 6.14773 12.5839 5.64526 12.3314C4.88281 11.979 4.04711 11.8141 3.20795 11.8506C2.76754 11.8813 2.32521 11.8701 1.88692 11.8173C0.996625 11.6656 0.408152 11.115 0.0668985 10.2884C0.0250275 10.1817 0.00392577 10.0679 0.00471857 9.95325C0.00471857 8.4851 -0.00589821 7.01695 0.00471857 5.55487C0.00471857 5.06953 0.295922 4.69946 0.611391 4.36731C0.831765 4.13189 1.09916 3.94543 1.39624 3.82001C1.69333 3.69459 2.01345 3.63302 2.33586 3.6393C2.89248 3.6393 3.45365 3.66812 4.00421 3.62262C4.98247 3.5392 5.86365 3.157 6.68873 2.63526C7.7949 1.93758 8.90106 1.24193 10.0072 0.548302C10.3803 0.314733 10.7489 0.0857156 11.2054 0.0144315C11.4772 -0.0223131 11.7538 0.0113924 12.0087 0.112316C12.2637 0.21324 12.4885 0.377993 12.6614 0.590769C12.9107 0.951864 13.0324 1.38578 13.0072 1.82383C13.0113 3.79956 13.0123 5.77681 13.0103 7.75558ZM11.5178 1.4659C11.4231 1.48274 11.3301 1.50864 11.2403 1.54324C11.1174 1.60543 11.0007 1.68278 10.8839 1.75558C9.76153 2.46236 8.63767 3.16458 7.51836 3.87894C6.30501 4.65396 4.98701 5.14082 3.52341 5.1484C3.13059 5.1484 2.73626 5.13626 2.34344 5.13323C1.82473 5.13323 1.48651 5.45932 1.48499 5.97196C1.48499 7.1853 1.48499 8.39865 1.48499 9.61199C1.47969 9.76434 1.524 9.91429 1.61125 10.0393C1.6985 10.1643 1.82398 10.2576 1.96881 10.3051C2.10986 10.3582 2.25947 10.385 2.41017 10.384C3.08055 10.4067 3.75699 10.3703 4.4213 10.4477C5.63464 10.5872 6.71906 11.1181 7.74282 11.7824C8.86972 12.5134 10.0178 13.2156 11.1569 13.9254C11.2742 13.9825 11.396 14.0302 11.5209 14.068C11.5285 9.83495 11.53 5.66862 11.5178 1.4659Z" fill="#5B5B5B"/>
<path d="M19.9279 7.6418C19.8869 9.76515 19.2757 11.6807 17.8985 13.3248C17.5952 13.6843 17.1402 13.7434 16.8217 13.4765C16.7411 13.4115 16.6749 13.3306 16.6273 13.2387C16.5798 13.1468 16.5518 13.046 16.5452 12.9428C16.5387 12.8395 16.5537 12.736 16.5892 12.6389C16.6248 12.5417 16.6802 12.453 16.7519 12.3784C17.7261 11.2179 18.3052 9.77709 18.4051 8.26515C18.4888 7.34477 18.3881 6.41693 18.1089 5.53592C17.8298 4.65492 17.3777 3.83843 16.7792 3.13422C16.3909 2.66101 16.5335 2.19387 16.805 1.97395C16.957 1.84979 17.152 1.79092 17.3473 1.81025C17.5426 1.82958 17.7223 1.92554 17.847 2.07709C18.6998 3.0606 19.3125 4.22883 19.6367 5.48962C19.8226 6.19217 19.9204 6.91511 19.9279 7.6418Z" fill="#5B5B5B"/>
<path d="M17.2449 7.68317C17.2328 9.11188 16.7899 10.3601 15.7449 11.3626C15.6223 11.4858 15.461 11.5631 15.2882 11.5816C15.1154 11.6001 14.9414 11.5587 14.7955 11.4643C14.6559 11.3708 14.5522 11.2327 14.5015 11.0726C14.4508 10.9124 14.456 10.7398 14.5164 10.5831C14.5632 10.4716 14.6323 10.3709 14.7196 10.2873C15.2717 9.75055 15.6229 9.04067 15.7146 8.27619C15.7972 7.77188 15.7776 7.2561 15.6569 6.75951C15.4842 6.12284 15.1401 5.54577 14.662 5.09116C14.5576 4.99663 14.4832 4.87349 14.4481 4.73705C14.4131 4.60062 14.4189 4.45688 14.4648 4.32372C14.5004 4.20407 14.5659 4.09548 14.6551 4.00819C14.7443 3.9209 14.8543 3.8578 14.9747 3.82486C15.0951 3.79192 15.2219 3.79021 15.3432 3.81991C15.4644 3.84961 15.576 3.90974 15.6676 3.9946C16.5097 4.76947 17.0525 5.81586 17.2009 6.95061C17.2328 7.19935 17.2313 7.44202 17.2449 7.68317Z" fill="#5B5B5B"/>
</svg>
